<svg xmlns="http://www.w3.org/2000/svg" viewBox="0 0 100 100" fill="none">
  <rect x="10" y="20" width="80" height="60" rx="4" fill="#E7162B"/>
  <rect x="20" y="30" width="60" height="40" rx="2" fill="#C01020"/>
  <text x="50" y="47" text-anchor="middle" font-family="monospace" font-size="10" font-weight="bold" fill="white">ESP</text>
  <text x="50" y="60" text-anchor="middle" font-family="monospace" font-size="10" font-weight="bold" fill="white">32</text>
  <!-- pins left -->
  <rect x="2" y="30" width="8" height="4" rx="1" fill="#888"/>
  <rect x="2" y="38" width="8" height="4" rx="1" fill="#888"/>
  <rect x="2" y="46" width="8" height="4" rx="1" fill="#888"/>
  <rect x="2" y="54" width="8" height="4" rx="1" fill="#888"/>
  <rect x="2" y="62" width="8" height="4" rx="1" fill="#888"/>
  <!-- pins right -->
  <rect x="90" y="30" width="8" height="4" rx="1" fill="#888"/>
  <rect x="90" y="38" width="8" height="4" rx="1" fill="#888"/>
  <rect x="90" y="46" width="8" height="4" rx="1" fill="#888"/>
  <rect x="90" y="54" width="8" height="4" rx="1" fill="#888"/>
  <rect x="90" y="62" width="8" height="4" rx="1" fill="#888"/>
</svg>
